<svg width="24" height="24" viewBox="0 0 24 24" fill="none" xmlns="http://www.w3.org/2000/svg">
<path d="M13 3H7C5.89543 3 5 3.89543 5 5V15C5 16.1046 5.89543 17 7 17H13C14.1046 17 15 16.1046 15 15V5C15 3.89543 14.1046 3 13 3Z" stroke="#F9F1F1" stroke-width="2" stroke-linecap="round" stroke-linejoin="round"/>
<path d="M7.5 7.5H12.5M7.5 10.5H12.5M7.5 13.5H10.5" stroke="#F9F1F1" stroke-width="2" stroke-linecap="round" stroke-linejoin="round"/>
<path d="M16 19.5C17.933 19.5 19.5 17.933 19.5 16C19.5 14.067 17.933 12.5 16 12.5C14.067 12.5 12.5 14.067 12.5 16C12.5 17.933 14.067 19.5 16 19.5Z" stroke="#F9F1F1" stroke-width="2" stroke-linecap="round" stroke-linejoin="round"/>
<path d="M18.5 18.5L21 21" stroke="#F9F1F1" stroke-width="2" stroke-linecap="round" stroke-linejoin="round"/>
</svg>
