<svg width="24" height="24" viewBox="0 0 24 24" fill="none" xmlns="http://www.w3.org/2000/svg">
<path d="M4 12C4 9.87827 4.84285 7.84344 6.34315 6.34315C7.84344 4.84285 9.87827 4 12 4C14.1217 4 16.1566 4.84285 17.6569 6.34315C19.1571 7.84344 20 9.87827 20 12" stroke="#F9F1F1" stroke-width="2" stroke-linecap="round" stroke-linejoin="round"/>
<path d="M5 11H4C3.44772 11 3 11.4477 3 12V16C3 16.5523 3.44772 17 4 17H5C5.55228 17 6 16.5523 6 16V12C6 11.4477 5.55228 11 5 11Z" stroke="#F9F1F1" stroke-width="2" stroke-linecap="round" stroke-linejoin="round"/>
<path d="M20 11H19C18.4477 11 18 11.4477 18 12V16C18 16.5523 18.4477 17 19 17H20C20.5523 17 21 16.5523 21 16V12C21 11.4477 20.5523 11 20 11Z" stroke="#F9F1F1" stroke-width="2" stroke-linecap="round" stroke-linejoin="round"/>
<path d="M10 19C10 19.5304 10.2107 20.0391 10.5858 20.4142C10.9609 20.7893 11.4696 21 12 21H14" stroke="#F9F1F1" stroke-width="2" stroke-linecap="round" stroke-linejoin="round"/>
<path d="M14 21H17" stroke="#F9F1F1" stroke-width="2" stroke-linecap="round" stroke-linejoin="round"/>
</svg>
