<svg xmlns="http://www.w3.org/2000/svg" viewBox="0 0 24 24">
  <path fill="white" d="M3.584 4.002h16.75c.06 0 .111.05.111.111V10.4c0 6.172-5.3 10.424-8.288 10.424-2.988 0-8.506-4.174-8.506-10.424V4.113a.11.11 0 0 1 .11-.111h-.177zm7.713 9.85H9.005V8.492c0-.159.082-.22.22-.22h1.927c.137 0 .22.061.22.22v5.139a.22.22 0 0 1-.22.22h.145zm6.403-5.139c0-.159-.083-.22-.22-.22h-1.904c-.138 0-.22.061-.22.22v2.302c0 .067-.045.067-.066.021 0 0-.782-2.543-.782-2.543-.046-.082-.092-.159-.175-.159h-1.904c-.137 0-.22.061-.22.22v5.139c0 .159.083.22.22.22h1.904c.138 0 .22-.061.22-.22v-2.324c0-.066.046-.066.067-.02l.805 2.563c.045.082.09.16.174.16h1.903c.138 0 .22-.061.22-.22V8.712h-.022z"/>
</svg>